<svg width="100" height="100" viewBox="0 0 100 100" fill="none" xmlns="http://www.w3.org/2000/svg">
<rect width="100" height="100" fill="#FFAE42"/>
<g filter="url(#filter0_d_712_36)">
<path d="M30.7838 83.6427C30.8803 83.731 30.9388 83.8532 30.9473 83.9837C30.9557 84.1142 30.9133 84.2428 30.829 84.3428C30.517 84.7146 30.1958 85.0918 29.8801 85.4681C29.0814 86.408 28.2926 87.3568 27.4767 88.2813C26.8317 89.0122 26.1199 89.6707 25.18 89.9928C25.1597 89.9995 25.138 90.0014 25.1168 89.9983C25.0956 89.9952 25.0754 89.9871 25.0579 89.9747V89.9747C25.0301 89.9546 25.0111 89.9247 25.0047 89.8911C24.9983 89.8574 25.005 89.8226 25.0235 89.7938C25.4758 89.09 25.8657 88.3383 26.4039 87.7132C27.5925 86.3274 28.8462 84.9995 30.062 83.6716C30.1528 83.5725 30.2793 83.5135 30.4136 83.5076C30.5479 83.5017 30.6791 83.5493 30.7784 83.64L30.7838 83.6427Z" fill="#1C172C"/>
</g>
<g filter="url(#filter1_d_712_36)">
<path d="M71.6649 30.1583L74.2402 28.6549C73.8033 34.3645 72.488 39.7811 70.5314 45.0611L65.5075 47.223L65.4821 47.2356C64.8489 47.5893 63.9344 47.7295 63.3854 48.2126C63.1764 48.3935 63.2949 48.7616 63.5753 48.7607C63.5889 48.7616 63.6025 48.7616 63.616 48.7607C65.5744 48.4423 67.4713 48.0534 69.4387 47.744C67.37 52.6133 64.8716 57.1379 61.8458 61.3767L55.5337 63.0158C55.4696 63.0326 55.4124 63.069 55.3701 63.12C55.3278 63.1709 55.3024 63.2338 55.2976 63.2999V63.3044C55.2916 63.3881 55.319 63.4707 55.3737 63.5342C55.4285 63.5978 55.5062 63.6371 55.5898 63.6436L59.8919 63.9701C57.3392 67.0891 54.6798 70.4613 51.2714 72.6314C48.4799 73.4039 45.6631 74.1076 42.8716 74.8928C42.7799 74.9167 42.699 74.9708 42.6417 75.0462C42.5844 75.1217 42.5542 75.2142 42.5559 75.3089C42.5658 75.5115 42.7169 75.5658 43.0452 75.5224C44.9575 75.2962 46.8444 74.9344 48.7684 74.7824C44.8571 77.6318 40.6373 79.7793 35.8485 80.8874C35.739 80.9117 35.6246 80.9016 35.5211 80.8582C35.4176 80.8149 35.3301 80.7406 35.2705 80.6455C35.211 80.5503 35.1825 80.4391 35.1888 80.3271C35.1951 80.2151 35.2359 80.1077 35.3058 80.0199C49.5455 62.3356 63.3944 42.3094 64.6906 18.9652V18.9579C64.6937 18.9092 64.678 18.8611 64.6468 18.8236C64.6156 18.786 64.5713 18.7617 64.5228 18.7557C64.4743 18.7497 64.4254 18.7625 64.386 18.7913C64.3466 18.8201 64.3197 18.8629 64.3107 18.9109C60.4898 41.6364 48.2601 62.7155 32.6083 79.7313C32.5367 79.8096 32.4438 79.8651 32.3409 79.8911C32.2381 79.917 32.1299 79.9123 32.0298 79.8775C31.9296 79.8426 31.8418 79.7792 31.7773 79.6951C31.7128 79.6109 31.6743 79.5097 31.6667 79.4039C31.3202 74.9073 32.3903 70.6395 33.976 66.3953C34.6255 67.8191 34.9955 69.4364 35.7083 70.7255C35.7414 70.7859 35.7953 70.8322 35.8599 70.856C35.9246 70.8798 35.9956 70.8793 36.06 70.8547C36.1243 70.8301 36.1776 70.783 36.2099 70.7221C36.2422 70.6613 36.2513 70.5908 36.2357 70.5237V70.5147C35.7846 68.5168 35.3404 66.5171 34.9032 64.5156C35.6603 61.1316 37.5219 57.9213 38.7024 54.5382L40.0294 56.038C40.3496 56.3528 40.5821 56.7951 40.9557 57.0213C41.19 57.1633 41.4984 56.9887 41.4668 56.7173C41.4641 56.6919 41.4571 56.6671 41.446 56.644C40.7793 55.2718 40.071 53.9747 39.4044 52.5961C41.6006 47.3713 43.8214 42.0859 46.043 36.8014H46.1977C47.6938 39.1723 49.1845 41.5396 50.6997 43.9394C50.7448 44.0108 50.8162 44.0616 50.8985 44.0808C50.9808 44.0999 51.0673 44.0858 51.1393 44.0416V44.0416C51.2066 44.0004 51.2562 43.9357 51.2788 43.8601C51.3013 43.7845 51.2951 43.7032 51.2614 43.6318C49.8603 40.6549 48.4717 37.7069 47.0715 34.7327C49.3691 29.848 51.8657 25.0602 55.0027 20.531C55.9019 22.8901 56.7395 25.1696 57.6187 27.5224C57.7408 27.848 57.8431 27.9638 58.0348 27.8842C58.1262 27.8451 58.2008 27.7748 58.2452 27.6858C58.2896 27.5969 58.3009 27.495 58.2773 27.3985C57.6124 24.5708 56.9403 21.7051 56.2429 18.7354C59.7336 14.4125 68.9484 4.5735 72.5079 13.858C71.6739 15.2573 70.8173 16.6621 69.9842 18.0706C69.8693 18.2976 69.5798 18.5418 69.8937 18.7834C70.2076 19.0249 70.3759 18.6929 70.5459 18.5066C71.417 17.5577 72.204 16.6151 73.0986 15.6771C74.1072 19.3623 74.45 23.0457 74.3198 26.8087C73.3241 27.7271 72.3291 28.6456 71.3347 29.564C71.0823 29.7974 71.0109 29.9358 71.1429 30.0868C71.2081 30.1574 71.2959 30.2032 71.3911 30.2162C71.4863 30.2292 71.5831 30.2088 71.6649 30.1583V30.1583Z" fill="url(#paint0_radial_712_36)"/>
</g>
<defs>
<filter id="filter0_d_712_36" x="21.0023" y="83.5071" width="13.946" height="14.4927" filterUnits="userSpaceOnUse" color-interpolation-filters="sRGB">
<feFlood flood-opacity="0" result="BackgroundImageFix"/>
<feColorMatrix in="SourceAlpha" type="matrix" values="0 0 0 0 0 0 0 0 0 0 0 0 0 0 0 0 0 0 127 0" result="hardAlpha"/>
<feOffset dy="4"/>
<feGaussianBlur stdDeviation="2"/>
<feComposite in2="hardAlpha" operator="out"/>
<feColorMatrix type="matrix" values="0 0 0 0 0 0 0 0 0 0 0 0 0 0 0 0 0 0 0.25 0"/>
<feBlend mode="normal" in2="BackgroundImageFix" result="effect1_dropShadow_712_36"/>
<feBlend mode="normal" in="SourceGraphic" in2="effect1_dropShadow_712_36" result="shape"/>
</filter>
<filter id="filter1_d_712_36" x="27.6014" y="9.99997" width="50.7448" height="78.9004" filterUnits="userSpaceOnUse" color-interpolation-filters="sRGB">
<feFlood flood-opacity="0" result="BackgroundImageFix"/>
<feColorMatrix in="SourceAlpha" type="matrix" values="0 0 0 0 0 0 0 0 0 0 0 0 0 0 0 0 0 0 127 0" result="hardAlpha"/>
<feOffset dy="4"/>
<feGaussianBlur stdDeviation="2"/>
<feComposite in2="hardAlpha" operator="out"/>
<feColorMatrix type="matrix" values="0 0 0 0 0 0 0 0 0 0 0 0 0 0 0 0 0 0 0.25 0"/>
<feBlend mode="normal" in2="BackgroundImageFix" result="effect1_dropShadow_712_36"/>
<feBlend mode="normal" in="SourceGraphic" in2="effect1_dropShadow_712_36" result="shape"/>
</filter>
<radialGradient id="paint0_radial_712_36" cx="0" cy="0" r="1" gradientUnits="userSpaceOnUse" gradientTransform="translate(56.5 46) rotate(122.152) scale(41.3401 12.8449)">
<stop stop-color="#073376"/>
<stop offset="1" stop-color="#29B2A0"/>
</radialGradient>
</defs>
</svg>
